<?xml version="1.0" encoding="UTF-8" standalone="no"?>
<!DOCTYPE svg PUBLIC "-//W3C//DTD SVG 1.1//EN"
 "http://www.w3.org/Graphics/SVG/1.1/DTD/svg11.dtd">
<!-- Generated by graphviz version 14.1.3 (20260303.0454)
 -->
<!-- Pages: 1 -->
<svg width="747pt" height="128pt"
 viewBox="0.00 0.00 747.00 128.00" xmlns="http://www.w3.org/2000/svg" xmlns:xlink="http://www.w3.org/1999/xlink">
<g id="graph0" class="graph" transform="scale(1 1) rotate(0) translate(4 124)">
<polygon fill="white" stroke="none" points="-4,4 -4,-124 742.5,-124 742.5,4 -4,4"/>
<!-- 2025099267120 -->
<g id="node1" class="node">
<title>2025099267120</title>
<polygon fill="none" stroke="black" points="215.75,-83.5 215.75,-119.5 307.75,-119.5 307.75,-83.5 215.75,-83.5"/>
<text xml:space="preserve" text-anchor="middle" x="226.75" y="-96.7" font-family="Times New Roman,serif" font-size="14.00">a</text>
<polyline fill="none" stroke="black" points="237.75,-84 237.75,-119.5"/>
<text xml:space="preserve" text-anchor="middle" x="272.75" y="-96.7" font-family="Times New Roman,serif" font-size="14.00">data: 10.0</text>
</g>
<!-- 2025087783216+ -->
<g id="node8" class="node">
<title>2025087783216+</title>
<ellipse fill="none" stroke="black" cx="370.75" cy="-73.5" rx="27" ry="18"/>
<text xml:space="preserve" text-anchor="middle" x="370.75" y="-68.45" font-family="Times New Roman,serif" font-size="14.00">+</text>
</g>
<!-- 2025099267120&#45;&gt;2025087783216+ -->
<g id="edge6" class="edge">
<title>2025099267120&#45;&gt;2025087783216+</title>
<path fill="none" stroke="black" d="M308.13,-89.63C316.82,-87.35 325.81,-85 334.14,-82.82"/>
<polygon fill="black" stroke="black" points="334.75,-86.28 343.54,-80.36 332.98,-79.5 334.75,-86.28"/>
</g>
<!-- 2025087644224 -->
<g id="node2" class="node">
<title>2025087644224</title>
<polygon fill="none" stroke="black" points="645.75,-27.5 645.75,-63.5 738.5,-63.5 738.5,-27.5 645.75,-27.5"/>
<text xml:space="preserve" text-anchor="middle" x="657.12" y="-40.7" font-family="Times New Roman,serif" font-size="14.00">b</text>
<polyline fill="none" stroke="black" points="668.5,-28 668.5,-63.5"/>
<text xml:space="preserve" text-anchor="middle" x="703.5" y="-40.7" font-family="Times New Roman,serif" font-size="14.00">data: 20.0</text>
</g>
<!-- 2025087644224* -->
<g id="node3" class="node">
<title>2025087644224*</title>
<ellipse fill="none" stroke="black" cx="582.75" cy="-45.5" rx="27" ry="18"/>
<text xml:space="preserve" text-anchor="middle" x="582.75" y="-40.45" font-family="Times New Roman,serif" font-size="14.00">*</text>
</g>
<!-- 2025087644224*&#45;&gt;2025087644224 -->
<g id="edge1" class="edge">
<title>2025087644224*&#45;&gt;2025087644224</title>
<path fill="none" stroke="black" d="M610.02,-45.5C617.36,-45.5 625.64,-45.5 634.02,-45.5"/>
<polygon fill="black" stroke="black" points="633.94,-49 643.94,-45.5 633.94,-42 633.94,-49"/>
</g>
<!-- 2025094378064 -->
<g id="node4" class="node">
<title>2025094378064</title>
<polygon fill="none" stroke="black" points="2.25,-56.5 2.25,-92.5 87.5,-92.5 87.5,-56.5 2.25,-56.5"/>
<text xml:space="preserve" text-anchor="middle" x="13.25" y="-69.7" font-family="Times New Roman,serif" font-size="14.00">c</text>
<polyline fill="none" stroke="black" points="24.25,-57 24.25,-92.5"/>
<text xml:space="preserve" text-anchor="middle" x="55.88" y="-69.7" font-family="Times New Roman,serif" font-size="14.00">data: 2.0</text>
</g>
<!-- 2025099267424* -->
<g id="node10" class="node">
<title>2025099267424*</title>
<ellipse fill="none" stroke="black" cx="152.75" cy="-46.5" rx="27" ry="18"/>
<text xml:space="preserve" text-anchor="middle" x="152.75" y="-41.45" font-family="Times New Roman,serif" font-size="14.00">*</text>
</g>
<!-- 2025094378064&#45;&gt;2025099267424* -->
<g id="edge9" class="edge">
<title>2025094378064&#45;&gt;2025099267424*</title>
<path fill="none" stroke="black" d="M87.72,-63.43C97.15,-60.94 107.07,-58.32 116.21,-55.9"/>
<polygon fill="black" stroke="black" points="117.04,-59.3 125.81,-53.36 115.25,-52.53 117.04,-59.3"/>
</g>
<!-- 2025098941104 -->
<g id="node5" class="node">
<title>2025098941104</title>
<polygon fill="none" stroke="black" points="433.75,-0.5 433.75,-36.5 519.75,-36.5 519.75,-0.5 433.75,-0.5"/>
<text xml:space="preserve" text-anchor="middle" x="445.12" y="-13.7" font-family="Times New Roman,serif" font-size="14.00">d</text>
<polyline fill="none" stroke="black" points="456.5,-1 456.5,-36.5"/>
<text xml:space="preserve" text-anchor="middle" x="488.12" y="-13.7" font-family="Times New Roman,serif" font-size="14.00">data: 5.0</text>
</g>
<!-- 2025098941104&#45;&gt;2025087644224* -->
<g id="edge4" class="edge">
<title>2025098941104&#45;&gt;2025087644224*</title>
<path fill="none" stroke="black" d="M520.05,-29.48C528.71,-31.73 537.74,-34.08 546.14,-36.26"/>
<polygon fill="black" stroke="black" points="545.08,-39.6 555.64,-38.72 546.84,-32.82 545.08,-39.6"/>
</g>
<!-- 2025094378704 -->
<g id="node6" class="node">
<title>2025094378704</title>
<polygon fill="none" stroke="black" points="0,-1.5 0,-37.5 89.75,-37.5 89.75,-1.5 0,-1.5"/>
<text xml:space="preserve" text-anchor="middle" x="11" y="-14.7" font-family="Times New Roman,serif" font-size="14.00">e</text>
<polyline fill="none" stroke="black" points="22,-2 22,-37.5"/>
<text xml:space="preserve" text-anchor="middle" x="55.88" y="-14.7" font-family="Times New Roman,serif" font-size="14.00">data: &#45;3.0</text>
</g>
<!-- 2025094378704&#45;&gt;2025099267424* -->
<g id="edge8" class="edge">
<title>2025094378704&#45;&gt;2025099267424*</title>
<path fill="none" stroke="black" d="M90.16,-30.79C98.71,-32.97 107.57,-35.23 115.82,-37.34"/>
<polygon fill="black" stroke="black" points="114.94,-40.73 125.5,-39.81 116.67,-33.94 114.94,-40.73"/>
</g>
<!-- 2025087783216 -->
<g id="node7" class="node">
<title>2025087783216</title>
<polygon fill="none" stroke="black" points="434.88,-55.5 434.88,-91.5 518.62,-91.5 518.62,-55.5 434.88,-55.5"/>
<text xml:space="preserve" text-anchor="middle" x="445.12" y="-68.7" font-family="Times New Roman,serif" font-size="14.00">f</text>
<polyline fill="none" stroke="black" points="455.38,-56 455.38,-91.5"/>
<text xml:space="preserve" text-anchor="middle" x="487" y="-68.7" font-family="Times New Roman,serif" font-size="14.00">data: 4.0</text>
</g>
<!-- 2025087783216&#45;&gt;2025087644224* -->
<g id="edge5" class="edge">
<title>2025087783216&#45;&gt;2025087644224*</title>
<path fill="none" stroke="black" d="M518.85,-62.43C527.85,-60.01 537.31,-57.46 546.08,-55.1"/>
<polygon fill="black" stroke="black" points="546.9,-58.51 555.65,-52.53 545.08,-51.75 546.9,-58.51"/>
</g>
<!-- 2025087783216+&#45;&gt;2025087783216 -->
<g id="edge2" class="edge">
<title>2025087783216+&#45;&gt;2025087783216</title>
<path fill="none" stroke="black" d="M397.99,-73.5C405.69,-73.5 414.4,-73.5 423.13,-73.5"/>
<polygon fill="black" stroke="black" points="423.02,-77 433.02,-73.5 423.02,-70 423.02,-77"/>
</g>
<!-- 2025099267424 -->
<g id="node9" class="node">
<title>2025099267424</title>
<polygon fill="none" stroke="black" points="216.5,-28.5 216.5,-64.5 307,-64.5 307,-28.5 216.5,-28.5"/>
<text xml:space="preserve" text-anchor="middle" x="227.88" y="-41.7" font-family="Times New Roman,serif" font-size="14.00">g</text>
<polyline fill="none" stroke="black" points="239.25,-29 239.25,-64.5"/>
<text xml:space="preserve" text-anchor="middle" x="273.12" y="-41.7" font-family="Times New Roman,serif" font-size="14.00">data: &#45;6.0</text>
</g>
<!-- 2025099267424&#45;&gt;2025087783216+ -->
<g id="edge7" class="edge">
<title>2025099267424&#45;&gt;2025087783216+</title>
<path fill="none" stroke="black" d="M307.2,-57.72C316.22,-59.99 325.6,-62.36 334.26,-64.54"/>
<polygon fill="black" stroke="black" points="333.13,-67.87 343.68,-66.92 334.84,-61.08 333.13,-67.87"/>
</g>
<!-- 2025099267424*&#45;&gt;2025099267424 -->
<g id="edge3" class="edge">
<title>2025099267424*&#45;&gt;2025099267424</title>
<path fill="none" stroke="black" d="M180.2,-46.5C187.77,-46.5 196.33,-46.5 204.96,-46.5"/>
<polygon fill="black" stroke="black" points="204.77,-50 214.77,-46.5 204.77,-43 204.77,-50"/>
</g>
</g>
</svg>
