<?xml version="1.0" encoding="UTF-8" standalone="no"?>
<!DOCTYPE svg PUBLIC "-//W3C//DTD SVG 1.1//EN"
 "http://www.w3.org/Graphics/SVG/1.1/DTD/svg11.dtd">
<!-- Generated by graphviz version 14.1.3 (20260303.0454)
 -->
<!-- Pages: 1 -->
<svg width="1008pt" height="154pt"
 viewBox="0.00 0.00 1008.00 154.00" xmlns="http://www.w3.org/2000/svg" xmlns:xlink="http://www.w3.org/1999/xlink">
<g id="graph0" class="graph" transform="scale(1 1) rotate(0) translate(4 150)">
<polygon fill="white" stroke="none" points="-4,4 -4,-150 1003.75,-150 1003.75,4 -4,4"/>
<!-- 2184482018304 -->
<g id="node1" class="node">
<title>2184482018304</title>
<polygon fill="none" stroke="black" points="564.75,-109.5 564.75,-145.5 714.75,-145.5 714.75,-109.5 564.75,-109.5"/>
<text xml:space="preserve" text-anchor="middle" x="575.75" y="-122.7" font-family="Times New Roman,serif" font-size="14.00">a</text>
<polyline fill="none" stroke="black" points="586.75,-110 586.75,-145.5"/>
<text xml:space="preserve" text-anchor="middle" x="618.38" y="-122.7" font-family="Times New Roman,serif" font-size="14.00">data: 5.0</text>
<polyline fill="none" stroke="black" points="650,-110 650,-145.5"/>
<text xml:space="preserve" text-anchor="middle" x="682.38" y="-122.7" font-family="Times New Roman,serif" font-size="14.00">grad: 0.0</text>
</g>
<!-- 2184470737200* -->
<g id="node10" class="node">
<title>2184470737200*</title>
<ellipse fill="none" stroke="black" cx="777.75" cy="-99.5" rx="27" ry="18"/>
<text xml:space="preserve" text-anchor="middle" x="777.75" y="-94.45" font-family="Times New Roman,serif" font-size="14.00">*</text>
</g>
<!-- 2184482018304&#45;&gt;2184470737200* -->
<g id="edge4" class="edge">
<title>2184482018304&#45;&gt;2184470737200*</title>
<path fill="none" stroke="black" d="M715.12,-112.19C723.95,-110.37 732.64,-108.58 740.58,-106.95"/>
<polygon fill="black" stroke="black" points="741.04,-110.43 750.12,-104.98 739.62,-103.57 741.04,-110.43"/>
</g>
<!-- 2184482360368 -->
<g id="node2" class="node">
<title>2184482360368</title>
<polygon fill="none" stroke="black" points="281.25,-82.5 281.25,-118.5 438.75,-118.5 438.75,-82.5 281.25,-82.5"/>
<text xml:space="preserve" text-anchor="middle" x="292.62" y="-95.7" font-family="Times New Roman,serif" font-size="14.00">b</text>
<polyline fill="none" stroke="black" points="304,-83 304,-118.5"/>
<text xml:space="preserve" text-anchor="middle" x="339" y="-95.7" font-family="Times New Roman,serif" font-size="14.00">data: 10.0</text>
<polyline fill="none" stroke="black" points="374,-83 374,-118.5"/>
<text xml:space="preserve" text-anchor="middle" x="406.38" y="-95.7" font-family="Times New Roman,serif" font-size="14.00">grad: 0.0</text>
</g>
<!-- 2184470877328+ -->
<g id="node8" class="node">
<title>2184470877328+</title>
<ellipse fill="none" stroke="black" cx="501.75" cy="-72.5" rx="27" ry="18"/>
<text xml:space="preserve" text-anchor="middle" x="501.75" y="-67.45" font-family="Times New Roman,serif" font-size="14.00">+</text>
</g>
<!-- 2184482360368&#45;&gt;2184470877328+ -->
<g id="edge6" class="edge">
<title>2184482360368&#45;&gt;2184470877328+</title>
<path fill="none" stroke="black" d="M439.05,-84.86C447.77,-83.12 456.31,-81.4 464.13,-79.84"/>
<polygon fill="black" stroke="black" points="464.77,-83.28 473.89,-77.88 463.4,-76.41 464.77,-83.28"/>
</g>
<!-- 2184477487376 -->
<g id="node3" class="node">
<title>2184477487376</title>
<polygon fill="none" stroke="black" points="2.62,-55.5 2.62,-91.5 152.62,-91.5 152.62,-55.5 2.62,-55.5"/>
<text xml:space="preserve" text-anchor="middle" x="13.62" y="-68.7" font-family="Times New Roman,serif" font-size="14.00">c</text>
<polyline fill="none" stroke="black" points="24.62,-56 24.62,-91.5"/>
<text xml:space="preserve" text-anchor="middle" x="56.25" y="-68.7" font-family="Times New Roman,serif" font-size="14.00">data: 2.0</text>
<polyline fill="none" stroke="black" points="87.88,-56 87.88,-91.5"/>
<text xml:space="preserve" text-anchor="middle" x="120.25" y="-68.7" font-family="Times New Roman,serif" font-size="14.00">grad: 0.0</text>
</g>
<!-- 2184482360672* -->
<g id="node6" class="node">
<title>2184482360672*</title>
<ellipse fill="none" stroke="black" cx="218.25" cy="-45.5" rx="27" ry="18"/>
<text xml:space="preserve" text-anchor="middle" x="218.25" y="-40.45" font-family="Times New Roman,serif" font-size="14.00">*</text>
</g>
<!-- 2184477487376&#45;&gt;2184482360672* -->
<g id="edge8" class="edge">
<title>2184477487376&#45;&gt;2184482360672*</title>
<path fill="none" stroke="black" d="M152.81,-58.52C162.54,-56.55 172.15,-54.61 180.86,-52.85"/>
<polygon fill="black" stroke="black" points="181.5,-56.29 190.61,-50.88 180.12,-49.43 181.5,-56.29"/>
</g>
<!-- 2184477488016 -->
<g id="node4" class="node">
<title>2184477488016</title>
<polygon fill="none" stroke="black" points="0,-0.5 0,-36.5 155.25,-36.5 155.25,-0.5 0,-0.5"/>
<text xml:space="preserve" text-anchor="middle" x="11.38" y="-13.7" font-family="Times New Roman,serif" font-size="14.00">d</text>
<polyline fill="none" stroke="black" points="22.75,-1 22.75,-36.5"/>
<text xml:space="preserve" text-anchor="middle" x="56.62" y="-13.7" font-family="Times New Roman,serif" font-size="14.00">data: &#45;3.0</text>
<polyline fill="none" stroke="black" points="90.5,-1 90.5,-36.5"/>
<text xml:space="preserve" text-anchor="middle" x="122.88" y="-13.7" font-family="Times New Roman,serif" font-size="14.00">grad: 0.0</text>
</g>
<!-- 2184477488016&#45;&gt;2184482360672* -->
<g id="edge9" class="edge">
<title>2184477488016&#45;&gt;2184482360672*</title>
<path fill="none" stroke="black" d="M155.64,-33.5C164.33,-35.19 172.86,-36.85 180.67,-38.37"/>
<polygon fill="black" stroke="black" points="179.92,-41.8 190.41,-40.27 181.26,-34.92 179.92,-41.8"/>
</g>
<!-- 2184482360672 -->
<g id="node5" class="node">
<title>2184482360672</title>
<polygon fill="none" stroke="black" points="282.75,-27.5 282.75,-63.5 437.25,-63.5 437.25,-27.5 282.75,-27.5"/>
<text xml:space="preserve" text-anchor="middle" x="293.75" y="-40.7" font-family="Times New Roman,serif" font-size="14.00">e</text>
<polyline fill="none" stroke="black" points="304.75,-28 304.75,-63.5"/>
<text xml:space="preserve" text-anchor="middle" x="338.62" y="-40.7" font-family="Times New Roman,serif" font-size="14.00">data: &#45;6.0</text>
<polyline fill="none" stroke="black" points="372.5,-28 372.5,-63.5"/>
<text xml:space="preserve" text-anchor="middle" x="404.88" y="-40.7" font-family="Times New Roman,serif" font-size="14.00">grad: 0.0</text>
</g>
<!-- 2184482360672&#45;&gt;2184470877328+ -->
<g id="edge7" class="edge">
<title>2184482360672&#45;&gt;2184470877328+</title>
<path fill="none" stroke="black" d="M437.42,-60.26C446.77,-62.07 455.97,-63.85 464.33,-65.46"/>
<polygon fill="black" stroke="black" points="463.55,-68.88 474.04,-67.34 464.88,-62.01 463.55,-68.88"/>
</g>
<!-- 2184482360672*&#45;&gt;2184482360672 -->
<g id="edge1" class="edge">
<title>2184482360672*&#45;&gt;2184482360672</title>
<path fill="none" stroke="black" d="M245.54,-45.5C253.12,-45.5 261.86,-45.5 271.03,-45.5"/>
<polygon fill="black" stroke="black" points="270.89,-49 280.89,-45.5 270.89,-42 270.89,-49"/>
</g>
<!-- 2184470877328 -->
<g id="node7" class="node">
<title>2184470877328</title>
<polygon fill="none" stroke="black" points="565.5,-54.5 565.5,-90.5 714,-90.5 714,-54.5 565.5,-54.5"/>
<text xml:space="preserve" text-anchor="middle" x="575.75" y="-67.7" font-family="Times New Roman,serif" font-size="14.00">f</text>
<polyline fill="none" stroke="black" points="586,-55 586,-90.5"/>
<text xml:space="preserve" text-anchor="middle" x="617.62" y="-67.7" font-family="Times New Roman,serif" font-size="14.00">data: 4.0</text>
<polyline fill="none" stroke="black" points="649.25,-55 649.25,-90.5"/>
<text xml:space="preserve" text-anchor="middle" x="681.62" y="-67.7" font-family="Times New Roman,serif" font-size="14.00">grad: 0.0</text>
</g>
<!-- 2184470877328&#45;&gt;2184470737200* -->
<g id="edge5" class="edge">
<title>2184470877328&#45;&gt;2184470737200*</title>
<path fill="none" stroke="black" d="M714.32,-87.11C723.32,-88.89 732.19,-90.65 740.29,-92.26"/>
<polygon fill="black" stroke="black" points="739.56,-95.69 750.05,-94.2 740.92,-88.82 739.56,-95.69"/>
</g>
<!-- 2184470877328+&#45;&gt;2184470877328 -->
<g id="edge2" class="edge">
<title>2184470877328+&#45;&gt;2184470877328</title>
<path fill="none" stroke="black" d="M528.97,-72.5C536.35,-72.5 544.81,-72.5 553.67,-72.5"/>
<polygon fill="black" stroke="black" points="553.56,-76 563.56,-72.5 553.56,-69 553.56,-76"/>
</g>
<!-- 2184470737200 -->
<g id="node9" class="node">
<title>2184470737200</title>
<polygon fill="none" stroke="black" points="840.75,-81.5 840.75,-117.5 999.75,-117.5 999.75,-81.5 840.75,-81.5"/>
<text xml:space="preserve" text-anchor="middle" x="852.88" y="-94.7" font-family="Times New Roman,serif" font-size="14.00">L</text>
<polyline fill="none" stroke="black" points="865,-82 865,-117.5"/>
<text xml:space="preserve" text-anchor="middle" x="900" y="-94.7" font-family="Times New Roman,serif" font-size="14.00">data: 20.0</text>
<polyline fill="none" stroke="black" points="935,-82 935,-117.5"/>
<text xml:space="preserve" text-anchor="middle" x="967.38" y="-94.7" font-family="Times New Roman,serif" font-size="14.00">grad: 0.0</text>
</g>
<!-- 2184470737200*&#45;&gt;2184470737200 -->
<g id="edge3" class="edge">
<title>2184470737200*&#45;&gt;2184470737200</title>
<path fill="none" stroke="black" d="M805.18,-99.5C812.31,-99.5 820.44,-99.5 829.01,-99.5"/>
<polygon fill="black" stroke="black" points="828.95,-103 838.95,-99.5 828.95,-96 828.95,-103"/>
</g>
</g>
</svg>
